<?xml version="1.0" encoding="iso-8859-1"?>
<!-- Generator: Adobe Illustrator 28.1.0, SVG Export Plug-In . SVG Version: 6.00 Build 0)  -->
<svg version="1.1" xmlns="http://www.w3.org/2000/svg" xmlns:xlink="http://www.w3.org/1999/xlink" x="0px" y="0px"
	 viewBox="0 0 1080 1080" style="enable-background:new 0 0 1080 1080;" xml:space="preserve">
<g id="Graphic">
	<path d="M1033.088,533.878c-0.372,92.196-18.084,175.963-61.009,252.922c-50.991,91.419-124.307,159.729-219.386,204.205
		c-80.829,37.81-165.847,53.323-254.669,45.78c-75.741-6.432-146.056-30.361-212.045-68.136
		c-70.411-40.306-124.912-96.378-167.329-164.804c-36.072-58.191-56.128-122.087-66.235-189.421
		c-7.943-52.916-7.289-105.855,1.64-158.466c15.588-91.844,53.136-173.586,114.305-244.356
		c56.452-65.312,125.993-111.06,206.715-140.385C431.497,50.72,489.75,40.189,549.866,41.465
		c105.588,2.24,200.891,35.398,284.852,99.005c100.115,75.845,163.684,175.587,188.945,299.059
		C1030.327,472.098,1033.486,505.081,1033.088,533.878z M75.274,551.257c1.706,16.156,3.587,46.314,8.269,76.031
		c15.354,97.451,59.83,180.307,129.208,249.866c35.062,35.154,76.325,61.723,120.793,83.568
		c73.525,36.119,151.102,52.68,232.913,48.294c52.739-2.828,103.701-14.33,152.503-34.618
		c63.92-26.572,119.536-65.323,166.44-116.213c46.866-50.85,80.109-109.722,99.524-176.043
		c16.423-56.1,22.32-113.514,18.955-171.969c-3.384-58.798-16.841-115.117-41.735-168.346
		c-38.828-83.023-96.813-149.514-174.486-198.763c-65.58-41.582-136.737-66.318-214.151-72.402
		c-56.54-4.444-112.077,2.364-166.031,19.341c-111.415,35.057-198.932,101.843-261.551,200.672
		C98.255,365.91,76.638,448.679,75.274,551.257z"/>
	<path d="M677.571,669.463c4.997,3.259,9.632,5.441,13.219,8.758c24.648,22.791,49.077,45.819,73.577,68.772
		c0.936,0.877,1.844,1.785,2.802,2.638c6.438,5.735,8.438,5.753,14.514-0.226c9.144-8.998,18.065-18.23,27.407-27.016
		c2.5-2.352,6.033-4.349,9.361-4.909c5.437-0.914,10.044,4.011,10.768,10.293c4.019,34.834,8.039,69.668,12.039,104.505
		c1.013,8.822-3.015,12.719-11.873,11.87c-34.903-3.346-69.808-6.669-104.724-9.875c-5.694-0.523-10.523-2.017-12.934-7.725
		c-2.485-5.882,0.928-9.69,4.742-13.431c9.313-9.135,18.411-18.494,27.887-27.455c4.108-3.884,4.542-6.255,0.094-10.65
		c-25.248-24.949-50.158-50.243-75.066-75.534c-8.676-8.809-9.605-14.458-3.15-22.163
		C668.874,674.16,673.189,672.409,677.571,669.463z"/>
	<path d="M749.442,299.024c-11.443-10.917-22.094-21.097-32.769-31.253c-3.641-3.464-7.369-6.954-5.256-12.675
		c2.112-5.717,6.774-7.759,12.514-8.447c35.24-4.225,70.467-8.551,105.696-12.866c8.341-1.022,12.543,3.042,11.545,11.522
		c-4.15,35.258-8.373,70.507-12.545,105.762c-0.598,5.054-2.685,8.934-7.723,10.814c-5.068,1.891-8.635-0.586-11.946-3.931
		c-9.48-9.576-18.866-19.246-28.472-28.693c-5.887-5.789-7.215-5.9-13.26-0.203c-23.813,22.44-47.452,45.064-71.191,67.583
		c-2.946,2.794-5.966,5.543-9.184,8.009c-6.902,5.289-14.264,4.539-20.051-1.803c-6.006-6.581-6.609-13.751-0.513-19.958
		c17.832-18.155,36.072-35.909,54.041-53.932C729.965,319.285,739.373,309.389,749.442,299.024z"/>
	<path d="M333.272,300.269c1.214,1.381,3.309,4.031,5.675,6.412c23.039,23.197,46.124,46.346,69.189,69.518
		c1.658,1.666,3.318,3.338,4.866,5.104c7.203,8.218,5.862,18.253-3.284,24.501c-4.729,3.23-9.698,3.58-14.298,0.038
		c-4.391-3.381-8.542-7.107-12.56-10.933c-22.442-21.375-44.79-42.849-67.218-64.239c-7.861-7.497-9.601-7.194-17.086,0.663
		c-8.251,8.662-16.746,17.101-25.351,25.414c-3.705,3.58-7.939,6.977-13.69,4.909c-5.735-2.063-6.675-7.138-7.328-12.437
		c-4.053-32.877-8.201-65.742-12.308-98.612c-0.212-1.696-0.393-3.401-0.482-5.107c-0.421-8.056,3.568-12.045,11.649-11.104
		c31.2,3.635,62.383,7.415,93.571,11.149c5.093,0.61,10.427,0.529,15.188,2.135c3.42,1.153,7.616,4.073,8.628,7.141
		c0.986,2.987-0.595,8.077-2.857,10.663C355.333,277.199,344.449,288.354,333.272,300.269z"/>
	<path d="M305.022,555.79c-16.895,0-33.791-0.039-50.686,0.016c-9.048,0.03-11.298,2.296-11.317,11.46
		c-0.024,10.906,0.006,21.816,0.226,32.719c0.119,5.924-2.088,10.302-7.224,13.292c-4.938,2.875-8.576-0.169-12.302-2.601
		c-29.361-19.164-58.724-38.326-88.031-57.574c-11.275-7.405-11.716-14.829-0.684-22.355c30.017-20.478,60.228-40.675,90.517-60.748
		c8.443-5.595,16.973-0.738,17.226,9.541c0.279,11.328,0.079,22.668,0.233,34.001c0.126,9.249,2.289,11.345,11.469,11.352
		c33.149,0.027,66.298-0.029,99.447,0.044c11.277,0.025,16.204,5.077,16.075,16.028c-0.122,10.434-4.396,14.684-14.906,14.702
		c-16.681,0.028-33.363,0.007-50.044,0.007C305.022,555.713,305.022,555.752,305.022,555.79z"/>
	<path d="M239.853,832.123c3.316-28.451,6.637-56.901,9.959-85.352c0.744-6.368,0.77-12.94,2.499-19.029
		c1.087-3.827,4.139-8.803,7.391-9.826c3.256-1.025,8.816,1.172,11.693,3.793c9.467,8.626,18.072,18.189,27.207,27.19
		c7.148,7.043,8.506,7,15.793,0.161c24.313-22.819,48.565-45.702,72.847-68.553c1.712-1.611,3.429-3.223,5.23-4.733
		c7.485-6.274,14.742-5.989,20.888,0.77c6.508,7.157,6.138,14.271-0.807,21.295c-25.402,25.693-50.663,51.525-76.168,77.115
		c-4.348,4.362-4.169,7.361,0.18,11.499c9.442,8.985,18.539,18.334,27.702,27.609c3.185,3.223,6.322,6.559,4.215,11.791
		c-2.117,5.258-6.345,7.151-11.576,7.696c-30.617,3.187-61.23,6.401-91.846,9.602c-4.252,0.445-8.497,0.981-12.759,1.283
		C242.884,845.101,239.423,841.624,239.853,832.123z"/>
	<path d="M776.354,555.693c-16.679,0.008-33.358,0.034-50.037-0.001c-10.615-0.022-15.366-4.659-15.55-15.034
		c-0.184-10.383,4.308-15.374,15.144-15.461c32.928-0.263,65.859-0.205,98.789-0.269c11.698-0.023,13.225-1.58,13.2-13.276
		c-0.022-10.478-0.501-20.997,0.312-31.412c0.303-3.889,2.82-9.03,5.934-10.845c2.732-1.592,8.525-0.575,11.57,1.421
		c28.962,18.979,57.627,38.409,86.37,57.721c1.419,0.953,2.795,1.976,4.142,3.028c8.367,6.534,8.492,13.532-0.289,19.723
		c-10.825,7.632-22.082,14.65-33.088,22.029c-18.286,12.261-36.482,24.657-54.808,36.859c-3.982,2.651-7.993,6.194-13.451,3.312
		c-5.973-3.155-7.091-8.417-6.931-14.642c0.281-10.899,0.127-21.809,0.128-32.714c0.001-8.266-2.278-10.453-10.755-10.45
		C810.14,555.69,793.247,555.685,776.354,555.693z"/>
	<path d="M540.949,734.734c8.374-0.037,13.336,4.652,13.687,13.566c1.264,32.063,2.418,64.131,3.514,96.201
		c0.314,9.187,1.369,10.406,10.446,10.393c12.195-0.016,24.391-0.016,36.586-0.077c4.778-0.024,9.812,0.808,10.96,5.81
		c0.772,3.365-0.258,8.184-2.325,10.999c-21.262,28.964-42.792,57.733-64.498,86.367c-6.823,9-12.025,8.82-18.744-0.229
		c-21.29-28.674-42.517-57.396-63.447-86.332c-1.916-2.649-3.217-8.033-1.811-10.239c1.935-3.036,6.635-5.758,10.308-5.976
		c12.581-0.75,25.23-0.337,37.853-0.389c8.289-0.034,9.718-1.413,9.941-9.612c0.863-31.65,1.716-63.3,2.563-94.95
		C526.243,740.576,531.818,734.774,540.949,734.734z"/>
	<path d="M586.14,224.343c-6.203,0-12.407-0.038-18.61,0.01c-7.296,0.057-9.001,1.729-9.307,9.033
		c-1.269,30.346-2.631,60.688-3.706,91.04c-0.226,6.371-2.845,10.621-8.553,12.941c-5.979,2.43-11.92,1.37-15.763-3.501
		c-2.38-3.016-3.375-7.745-3.56-11.771c-1.278-27.774-2.18-55.566-3.199-83.352c-0.055-1.496-0.045-2.995-0.13-4.49
		c-0.448-7.88-2.402-9.844-10.165-9.869c-12.407-0.041-24.815-0.067-37.22,0.092c-4.622,0.06-8.391-0.956-10.843-5.259
		c-2.576-4.52-0.775-8.193,1.918-11.785c21.16-28.231,42.239-56.524,63.525-84.659c7.211-9.53,13.423-9.448,20.433-0.086
		c20.252,27.047,40.41,54.164,60.599,81.258c0.894,1.2,2.172,2.343,2.491,3.697c0.87,3.685,2.471,7.743,1.66,11.146
		c-1.099,4.609-5.571,5.845-10.318,5.68c-6.41-0.223-12.833-0.055-19.25-0.055C586.14,224.39,586.14,224.366,586.14,224.343z"/>
	<path d="M766.371,447.98c-1.594,1.811-3.917,6.249-7.576,8.273c-11.183,6.186-22.835,11.537-34.395,17.022
		c-5.444,2.583-10.03,0.909-13.37-3.946c-3.386-4.923-2.655-9.702,1.161-14.044c1.102-1.255,2.511-2.402,4.007-3.124
		c11.905-5.743,23.762-11.607,35.848-16.947C759.239,432.036,766.511,437.45,766.371,447.98z"/>
	<path d="M719.228,606.456c1.699,0.331,2.835,0.333,3.769,0.768c12.745,5.936,25.615,11.633,38.117,18.047
		c5.799,2.975,6.867,9.919,3.565,15.602c-3.174,5.463-7.686,6.665-14.085,3.644c-11.753-5.547-23.625-10.867-35.174-16.811
		c-8.095-4.167-8.354-14.222-0.874-19.28C716.062,607.401,717.978,606.966,719.228,606.456z"/>
	<path d="M371.708,619.947c-1.206,1.647-2.738,5.798-5.657,7.364c-11.803,6.333-23.907,12.156-36.161,17.577
		c-5.826,2.578-10.947,0.13-13.479-5.028c-2.46-5.011-1.463-11.424,3.621-14.139c12.373-6.608,24.953-12.926,37.86-18.394
		C364.842,604.382,371.746,610.347,371.708,619.947z"/>
	<path d="M371.16,463.789c-0.189,8.033-8.031,13.109-15.259,9.647c-11.369-5.446-22.688-11.003-33.914-16.737
		c-6.808-3.478-8.547-9.392-5.221-16.172c3.012-6.142,7.621-7.429,15.117-3.918c9.474,4.438,18.923,8.938,28.269,13.637
		C365.756,453.063,371.285,456.197,371.16,463.789z"/>
	<path d="M291.75,656.06c-2.514,3.122-4.403,7.424-7.658,9.149c-10.345,5.481-21.101,10.232-31.892,14.808
		c-6.534,2.771-11.696,0.604-14.438-5.087c-2.579-5.352-1.27-11.097,4.658-14.253c11.096-5.908,22.417-11.498,34.023-16.307
		C283.996,641.239,290.459,646.695,291.75,656.06z"/>
	<path d="M843.4,413.512c-1.348,1.55-3.429,5.563-6.725,7.429c-9.465,5.358-19.341,10.023-29.213,14.621
		c-7.334,3.416-13.827,1.44-16.441-4.433c-2.773-6.23,0.164-12.544,7.392-16.116c9.76-4.824,19.421-9.855,29.25-14.535
		C835.541,396.727,843.501,402.146,843.4,413.512z"/>
	<path d="M800.936,642.661c0.946,0.281,2.457,0.512,3.767,1.154c10.711,5.249,21.517,10.329,32.023,15.966
		c6.807,3.652,8.624,11.31,4.531,16.843c-3.072,4.153-6.935,6.165-12.196,3.636c-10.943-5.26-21.995-10.296-32.895-15.644
		c-5.045-2.475-6.937-6.981-5.529-12.32C791.937,647.365,794.559,643.25,800.936,642.661z"/>
	<path d="M247.213,398.894c1.12,0.366,2.593,0.682,3.919,1.309c10.622,5.024,21.279,9.981,31.799,15.214
		c7.455,3.708,9.47,9.767,5.782,16.362c-2.75,4.918-6.871,7.378-12.275,4.812c-11.764-5.585-23.416-11.417-34.962-17.439
		c-4.707-2.455-5.396-7.079-3.96-11.718C238.898,402.968,241.612,399.448,247.213,398.894z"/>
	<path d="M620.974,355.524c-10.771-0.286-15.592-6.765-12.88-14.502c3.592-10.25,7.418-20.431,11.553-30.473
		c3.232-7.848,8.114-10.076,14.386-7.379c6.505,2.796,8.767,8.395,6.007,15.777c-3.657,9.78-7.135,19.668-11.576,29.093
		C626.803,351.563,622.654,353.915,620.974,355.524z"/>
	<path d="M442.82,809.086c-0.274,1.168-0.426,2.459-0.877,3.637c-4.039,10.563-7.949,21.181-12.272,31.627
		c-2.818,6.81-7.645,8.856-13.76,6.6c-6.388-2.357-8.799-7.406-6.281-14.319c3.943-10.826,8.037-21.605,12.42-32.259
		c2.115-5.139,6.419-7.489,11.985-5.981C439.275,799.812,442.244,803.468,442.82,809.086z"/>
	<path d="M650.727,797.981c1.688,1.502,6.117,3.7,7.723,7.195c4.896,10.651,8.884,21.737,12.854,32.787
		c1.774,4.936-2.242,11.034-7.768,12.903c-5.292,1.79-10.437-0.379-12.593-5.762c-4.369-10.904-8.701-21.831-12.658-32.888
		C635.625,804.781,640.54,798.036,650.727,797.981z"/>
	<path d="M450.855,302.354c5.167,0.132,8.296,3.11,10.076,7.601c4.172,10.527,8.339,21.06,12.221,31.695
		c1.783,4.883-1.464,10.344-6.956,12.74c-4.765,2.08-10.645,0.626-12.673-4.179c-4.814-11.406-9.442-22.933-13.29-34.69
		C437.894,308.373,443.438,302.218,450.855,302.354z"/>
	<path d="M650.848,279.145c-9.616-0.149-14.983-6.332-12.7-13.06c3.836-11.3,8.331-22.412,13.216-33.304
		c2.199-4.903,6.567-7.113,12.274-4.344c6.283,3.048,9.337,8.213,7.206,13.83c-3.711,9.782-7.314,19.658-11.924,29.021
		C657.099,274.985,652.703,277.415,650.848,279.145z"/>
	<path d="M621.872,723.29c1.481,1.497,5.338,3.85,6.884,7.253c4.415,9.713,8.065,19.792,11.667,29.851
		c2.016,5.629-0.514,10.374-6.139,12.941c-5.059,2.309-10.925,1.006-13.247-4.194c-4.959-11.105-9.556-22.415-13.488-33.918
		C605.519,729.283,612.203,723.035,621.872,723.29z"/>
	<path d="M459.021,723.81c10.658-0.209,16.29,6.594,13.626,13.791c-3.691,9.972-7.389,19.996-12.062,29.518
		c-1.595,3.249-6.161,7.026-9.332,6.992c-3.62-0.039-7.709-3.57-10.571-6.563c-1.365-1.426-1.144-5.401-0.296-7.733
		c3.56-9.79,7.257-19.571,11.711-28.974C453.683,727.496,457.558,725.235,459.021,723.81z"/>
	<path d="M428.838,279.19c-1.537-1.314-5.473-3.131-6.825-6.118c-4.751-10.501-8.792-21.34-12.737-32.184
		c-1.881-5.17,0.917-10.124,6.268-12.379c5.273-2.223,10.309-1.341,12.644,3.875c5.147,11.499,9.786,23.251,14.033,35.115
		C444.205,273.043,437.935,279.065,428.838,279.19z"/>
	<path d="M214.742,395.119c0.06,4.903-4.694,9.514-10.006,9.704c-5.553,0.199-10.133-4.411-10.042-10.108
		c0.09-5.599,4.154-9.947,9.432-10.094C209.824,384.463,214.67,389.255,214.742,395.119z"/>
	<path d="M687.015,881.432c-0.101,5.768-4.605,10.395-9.983,10.255c-5.343-0.139-9.996-5.203-9.771-10.635
		c0.198-4.77,5.378-9.56,10.282-9.506C682.847,871.604,687.109,876.052,687.015,881.432z"/>
	<path d="M875.547,384.521c5.463-0.138,10.387,4.638,10.344,10.034c-0.038,4.813-5.077,10.334-9.554,10.468
		c-5.237,0.157-9.859-4.621-10.051-10.39C866.104,389.149,870.219,384.655,875.547,384.521z"/>
	<path d="M412.354,881.67c-0.129,5.418-4.485,9.985-9.589,10.052c-5.324,0.07-9.951-4.766-9.954-10.406
		c-0.003-5.46,4.252-9.854,9.572-9.885C407.918,871.4,412.486,876.091,412.354,881.67z"/>
	<path d="M875.864,677.444c5.224,0.031,10.011,5.022,9.978,10.404c-0.031,5.051-4.736,9.6-9.968,9.636
		c-5.503,0.037-9.799-4.157-9.807-9.576C866.058,682.214,870.554,677.412,875.864,677.444z"/>
	<path d="M204.676,677.656c5.538-0.005,10.085,4.731,9.948,10.362c-0.135,5.535-4.319,9.365-10.103,9.248
		c-5.489-0.111-9.813-4.463-9.731-9.793C194.87,682.227,199.469,677.661,204.676,677.656z"/>
	<path d="M686.996,198.502c-0.024,5.33-4.338,9.526-9.819,9.55c-5.524,0.024-9.794-4.066-9.858-9.445
		c-0.07-5.816,4.14-10.27,9.765-10.334C682.595,188.211,687.022,192.78,686.996,198.502z"/>
	<path d="M402.282,188.213c5.439,0.172,10.15,5.195,9.861,10.514c-0.277,5.093-4.608,9.284-9.6,9.29
		c-5.351,0.006-9.909-4.96-9.714-10.586C393.01,192.179,397.24,188.054,402.282,188.213z"/>
</g>
<g id="Numbers">
	<g>
		<path d="M572.376,459.162h-65.8c-4.2,0-7.585,0.12-10.149,0.35c-2.57,0.235-4.436,0.585-5.601,1.05c-2.8,0.7-4.2,3.62-4.2,8.75
			c0,0.935,0.055,2.22,0.176,3.85c0.114,1.635,0.289,3.385,0.524,5.25c0.229,1.87,0.405,3.735,0.525,5.6
			c0.114,1.87,0.175,3.385,0.175,4.55c0,14.935-5.835,22.4-17.5,22.4c-11.436,0-17.15-6.415-17.15-19.25c0-1.4,0-3.205,0-5.425
			c0-2.215,0.115-4.605,0.351-7.175c0.229-2.33,0.404-4.604,0.524-6.825c0.115-2.215,0.176-3.905,0.176-5.075c0-3.265,0-6.065,0-8.4
			c0-2.33-0.121-4.43-0.351-6.3c0-1.63-0.06-3.265-0.175-4.9c-0.12-1.629-0.175-3.265-0.175-4.9c0-4.2,0.29-7.465,0.875-9.8
			c0.579-2.33,1.75-4.14,3.5-5.425c1.75-1.279,4.314-2.1,7.7-2.45c3.379-0.35,7.989-0.525,13.824-0.525h82.601
			c1.399,0,3.149,0,5.25,0c2.1,0,4.665-0.115,7.7-0.35c1.399,0,2.854-0.055,4.375-0.175c1.515-0.115,3.204-0.175,5.074-0.175
			c2.565-0.229,5.601-0.35,9.101-0.35s6.88,0,10.149,0c17.03,0,25.551,5.6,25.551,16.8c0,6.07-3.386,12.485-10.15,19.25l-53.2,51.1
			c19.83,0.7,35.815,7.235,47.95,19.6c13.3,13.3,19.95,29.986,19.95,50.05c0,24.971-9.45,45.62-28.351,61.95v-0.351
			c-8.87,8.171-19.195,14.176-30.975,18.025c-11.785,3.85-24.91,5.775-39.375,5.775c-26.37,0-48.42-6.421-66.15-19.25
			c-18.435-13.53-27.649-30.101-27.649-49.7c0-5.83,0.93-11.375,2.8-16.625c1.865-5.25,4.49-9.74,7.875-13.476
			c3.38-3.729,7.35-6.704,11.9-8.925c4.55-2.215,9.504-3.325,14.875-3.325c7.465,0,13.59,2.221,18.375,6.65
			c4.779,4.436,7.175,10.15,7.175,17.15c0,13.535-7.936,20.649-23.8,21.35c0.93,8.17,6.18,15.521,15.75,22.05
			c5.364,3.735,11.55,6.596,18.55,8.575c7,1.985,14.229,2.975,21.7,2.975c8.164,0,15.864-1.225,23.1-3.675
			c7.229-2.45,13.529-6.005,18.9-10.675c4.899-4.9,8.75-10.555,11.55-16.975c2.8-6.415,4.2-13.355,4.2-20.825
			c0-25.9-14.7-38.851-44.101-38.851c-7.47,0-16.22,0.936-26.25,2.801c-1.17,0.234-2.22,0.41-3.149,0.524
			c-0.936,0.12-2.101,0.175-3.5,0.175c-9.101,0-13.65-4.43-13.65-13.3c0-3.965,2.33-8.165,7-12.6L572.376,459.162z"/>
	</g>
</g>
</svg>
